# xmcd CD database file
#
# Track frame offsets:
#	150
#	11833
#	52994
#	69950
#	84353
#	102181
#	116029
#	128568
#	146076
#	157480
#	172560
#	184784
#	200963
#	210392
#	230717
#	236804
#	248333
#	262078
#
# Disc length: 3658 seconds
#
# Revision: 0
# Processed by: cddbd v1.5.2PL0 Copyright (c) Steve Scherf et al.
# Submitted via: CDex 1.50Beta7
#
DISCID=fc0e4812
DTITLE=Rozni Artysci 3 - gentleman and the city
DYEAR=2015
DGENRE=Jazz
TTITLE0=PAUL ANKA - Lonely Boy
TTITLE1=HANK MOBLEY - Soul Station
TTITLE2=JOHNNY NASH - My Folish Heart
TTITLE3=YUSUF/CAT STEVENS - Everytime I Dream
TTITLE4=BING CROSBY WITH BUDDY BREGMAN - The Song Is You
TTITLE5=AL MARTINO - Here In My Heart
TTITLE6=FRANKIE AVALON - With All My Heart
TTITLE7=RAY CHARLES - Careless Love
TTITLE8=BOBBY DARIN - Dream Lover
TTITLE9=MILLES DAVIS - Summertime
TTITLE10=SAMMY DAVIS JR - IFall In Love Too Easily
TTITLE11=VIC DAMONE - As Time Goes By
TTITLE12=ANDY WILLIAMS - Getting To Know You
TTITLE13=JOHNNY MATHUS - Prelude To A Kiss
TTITLE14=BILL EVANS TRIO - Waltz For Debby
TTITLE15=FRANK SINATRA - My Funny Valentine
TTITLE16=TONY BENNETT - Blue Velvet
TTITLE17=LOUIS ARMSTRONG and OSCAR PETERSON - That old Feeling
EXTD=YEAR: 2015
EXTT0=
EXTT1=
EXTT2=
EXTT3=
EXTT4=
EXTT5=
EXTT6=
EXTT7=
EXTT8=
EXTT9=
EXTT10=
EXTT11=
EXTT12=
EXTT13=
EXTT14=
EXTT15=
EXTT16=
EXTT17=
PLAYORDER=
